<mxfile host="app.diagrams.net" modified="2021-10-15T16:07:30.088Z" agent="5.0 (X11)" etag="GutHoRRaLuML1C3Of2SG" version="15.5.4" type="github">
  <diagram name="Page-1" id="c37626ed-c26b-45fb-9056-f9ebc6bb27b6">
    <mxGraphModel dx="1607" dy="864" grid="1" gridSize="10" guides="1" tooltips="1" connect="1" arrows="1" fold="1" page="1" pageScale="1" pageWidth="1100" pageHeight="850" background="none" math="0" shadow="0">
      <root>
        <mxCell id="0" />
        <mxCell id="1" parent="0" />
        <mxCell id="JHTwUMxyWwH-LDAKxkg0-12" style="edgeStyle=none;rounded=0;orthogonalLoop=1;jettySize=auto;html=1;exitX=0.5;exitY=1;exitDx=0;exitDy=0;exitPerimeter=0;endArrow=none;endFill=0;strokeWidth=5;" edge="1" parent="1" source="JHTwUMxyWwH-LDAKxkg0-1" target="JHTwUMxyWwH-LDAKxkg0-2">
          <mxGeometry relative="1" as="geometry" />
        </mxCell>
        <mxCell id="JHTwUMxyWwH-LDAKxkg0-14" style="rounded=0;orthogonalLoop=1;jettySize=auto;html=1;exitX=0.88;exitY=0.9;exitDx=0;exitDy=0;exitPerimeter=0;endArrow=none;endFill=0;strokeWidth=5;" edge="1" parent="1" source="JHTwUMxyWwH-LDAKxkg0-1" target="JHTwUMxyWwH-LDAKxkg0-5">
          <mxGeometry relative="1" as="geometry" />
        </mxCell>
        <mxCell id="JHTwUMxyWwH-LDAKxkg0-15" style="edgeStyle=none;rounded=0;orthogonalLoop=1;jettySize=auto;html=1;endArrow=none;endFill=0;strokeWidth=5;" edge="1" parent="1" source="JHTwUMxyWwH-LDAKxkg0-1" target="JHTwUMxyWwH-LDAKxkg0-4">
          <mxGeometry relative="1" as="geometry" />
        </mxCell>
        <mxCell id="JHTwUMxyWwH-LDAKxkg0-1" value="" style="shape=mxgraph.cisco.routers.atm_router;sketch=0;html=1;pointerEvents=1;dashed=0;fillColor=#036897;strokeColor=#ffffff;strokeWidth=2;verticalLabelPosition=bottom;verticalAlign=top;align=center;outlineConnect=0;" vertex="1" parent="1">
          <mxGeometry x="40" y="230" width="78" height="53" as="geometry" />
        </mxCell>
        <mxCell id="JHTwUMxyWwH-LDAKxkg0-2" value="" style="shape=mxgraph.cisco.routers.gigabit_switch_atm_tag_router;sketch=0;html=1;pointerEvents=1;dashed=0;fillColor=#036897;strokeColor=#ffffff;strokeWidth=2;verticalLabelPosition=bottom;verticalAlign=top;align=center;outlineConnect=0;" vertex="1" parent="1">
          <mxGeometry x="270" y="660" width="78" height="78" as="geometry" />
        </mxCell>
        <mxCell id="JHTwUMxyWwH-LDAKxkg0-3" value="" style="shape=mxgraph.cisco.routers.gigabit_switch_atm_tag_router;sketch=0;html=1;pointerEvents=1;dashed=0;fillColor=#036897;strokeColor=#ffffff;strokeWidth=2;verticalLabelPosition=bottom;verticalAlign=top;align=center;outlineConnect=0;" vertex="1" parent="1">
          <mxGeometry x="700" y="660" width="78" height="78" as="geometry" />
        </mxCell>
        <mxCell id="JHTwUMxyWwH-LDAKxkg0-4" value="" style="shape=mxgraph.cisco.routers.atm_router;sketch=0;html=1;pointerEvents=1;dashed=0;fillColor=#036897;strokeColor=#ffffff;strokeWidth=2;verticalLabelPosition=bottom;verticalAlign=top;align=center;outlineConnect=0;" vertex="1" parent="1">
          <mxGeometry x="472" y="90" width="78" height="53" as="geometry" />
        </mxCell>
        <mxCell id="JHTwUMxyWwH-LDAKxkg0-16" style="edgeStyle=none;rounded=0;orthogonalLoop=1;jettySize=auto;html=1;exitX=1;exitY=0.5;exitDx=0;exitDy=0;exitPerimeter=0;endArrow=none;endFill=0;strokeWidth=5;" edge="1" parent="1" source="JHTwUMxyWwH-LDAKxkg0-5" target="JHTwUMxyWwH-LDAKxkg0-7">
          <mxGeometry relative="1" as="geometry" />
        </mxCell>
        <mxCell id="JHTwUMxyWwH-LDAKxkg0-5" value="" style="shape=mxgraph.cisco.routers.atm_router;sketch=0;html=1;pointerEvents=1;dashed=0;fillColor=#036897;strokeColor=#ffffff;strokeWidth=2;verticalLabelPosition=bottom;verticalAlign=top;align=center;outlineConnect=0;" vertex="1" parent="1">
          <mxGeometry x="300" y="372" width="78" height="53" as="geometry" />
        </mxCell>
        <mxCell id="JHTwUMxyWwH-LDAKxkg0-13" style="edgeStyle=none;rounded=0;orthogonalLoop=1;jettySize=auto;html=1;exitX=0.5;exitY=1;exitDx=0;exitDy=0;exitPerimeter=0;endArrow=none;endFill=0;strokeWidth=5;" edge="1" parent="1" source="JHTwUMxyWwH-LDAKxkg0-6" target="JHTwUMxyWwH-LDAKxkg0-3">
          <mxGeometry relative="1" as="geometry" />
        </mxCell>
        <mxCell id="JHTwUMxyWwH-LDAKxkg0-19" style="edgeStyle=none;rounded=0;orthogonalLoop=1;jettySize=auto;html=1;exitX=0;exitY=0.5;exitDx=0;exitDy=0;exitPerimeter=0;endArrow=none;endFill=0;strokeWidth=5;" edge="1" parent="1" source="JHTwUMxyWwH-LDAKxkg0-6" target="JHTwUMxyWwH-LDAKxkg0-4">
          <mxGeometry relative="1" as="geometry" />
        </mxCell>
        <mxCell id="JHTwUMxyWwH-LDAKxkg0-6" value="" style="shape=mxgraph.cisco.routers.atm_router;sketch=0;html=1;pointerEvents=1;dashed=0;fillColor=#036897;strokeColor=#ffffff;strokeWidth=2;verticalLabelPosition=bottom;verticalAlign=top;align=center;outlineConnect=0;" vertex="1" parent="1">
          <mxGeometry x="890" y="230" width="78" height="53" as="geometry" />
        </mxCell>
        <mxCell id="JHTwUMxyWwH-LDAKxkg0-17" style="edgeStyle=none;rounded=0;orthogonalLoop=1;jettySize=auto;html=1;exitX=1;exitY=0.5;exitDx=0;exitDy=0;exitPerimeter=0;endArrow=none;endFill=0;strokeWidth=5;" edge="1" parent="1" source="JHTwUMxyWwH-LDAKxkg0-7" target="JHTwUMxyWwH-LDAKxkg0-6">
          <mxGeometry relative="1" as="geometry" />
        </mxCell>
        <mxCell id="JHTwUMxyWwH-LDAKxkg0-7" value="" style="shape=mxgraph.cisco.routers.atm_router;sketch=0;html=1;pointerEvents=1;dashed=0;fillColor=#036897;strokeColor=#ffffff;strokeWidth=2;verticalLabelPosition=bottom;verticalAlign=top;align=center;outlineConnect=0;" vertex="1" parent="1">
          <mxGeometry x="632" y="372" width="78" height="53" as="geometry" />
        </mxCell>
      </root>
    </mxGraphModel>
  </diagram>
</mxfile>
